HIERARCHY
ROOT mixamorig:Hips
{
	OFFSET 0.000000 3.528733 0.000000
	CHANNELS 6 Xposition Yposition Zposition Xrotation Yrotation Zrotation
	JOINT mixamorig:Spine
	{
		OFFSET 0.000000 0.284700 -0.015200
		CHANNELS 3 Xrotation Yrotation Zrotation
		JOINT mixamorig:Spine1
		{
			OFFSET 0.000000 0.332125 -0.017771
			CHANNELS 3 Xrotation Yrotation Zrotation
			JOINT mixamorig:Spine2
			{
				OFFSET 0.000000 0.379557 -0.020309
				CHANNELS 3 Xrotation Yrotation Zrotation
				JOINT mixamorig:Neck
				{
					OFFSET 0.000000 0.426989 -0.022847
					CHANNELS 3 Xrotation Yrotation Zrotation
					JOINT mixamorig:Head
					{
						OFFSET 0.000000 0.288600 0.098000
						CHANNELS 3 Xrotation Yrotation Zrotation
						JOINT mixamorig:HeadTop_End
						{
							OFFSET 0.000000 0.712700 0.242000
							CHANNELS 3 Xrotation Yrotation Zrotation
							End Site
							{
								OFFSET 0.000000 0.752666 0.000000
							}
						}
					}
				}
				JOINT mixamorig:LeftShoulder
				{
					OFFSET 0.202600 0.346984 -0.022672
					CHANNELS 3 Xrotation Yrotation Zrotation
					JOINT mixamorig:LeftArm
					{
						OFFSET 0.427337 -0.109325 0.000307
						CHANNELS 3 Xrotation Yrotation Zrotation
						JOINT mixamorig:LeftForeArm
						{
							OFFSET 0.849600 0.000000 0.000000
							CHANNELS 3 Xrotation Yrotation Zrotation
							JOINT mixamorig:LeftHand
							{
								OFFSET 0.753900 0.000000 0.000000
								CHANNELS 3 Xrotation Yrotation Zrotation
								JOINT mixamorig:LeftHandThumb1
								{
									OFFSET 0.136012 -0.086473 0.045448
									CHANNELS 3 Xrotation Yrotation Zrotation
									JOINT mixamorig:LeftHandThumb2
									{
										OFFSET 0.103772 -0.059913 0.059913
										CHANNELS 3 Xrotation Yrotation Zrotation
										JOINT mixamorig:LeftHandThumb3
										{
											OFFSET 0.095779 -0.055298 0.055298
											CHANNELS 3 Xrotation Yrotation Zrotation
											JOINT mixamorig:LeftHandThumb4
											{
												OFFSET 0.073275 -0.042305 0.042305
												CHANNELS 3 Xrotation Yrotation Zrotation
												End Site
												{
													OFFSET 0.065698 -0.038445 0.056164
												}
											}
										}
									}
								}
								JOINT mixamorig:LeftHandIndex1
								{
									OFFSET 0.449965 -0.020370 0.085418
									CHANNELS 3 Xrotation Yrotation Zrotation
									JOINT mixamorig:LeftHandIndex2
									{
										OFFSET 0.102424 0.000000 -0.000000
										CHANNELS 3 Xrotation Yrotation Zrotation
										JOINT mixamorig:LeftHandIndex3
										{
											OFFSET 0.096306 0.000000 -0.000000
											CHANNELS 3 Xrotation Yrotation Zrotation
											JOINT mixamorig:LeftHandIndex4
											{
												OFFSET 0.078408 0.000000 -0.000000
												CHANNELS 3 Xrotation Yrotation Zrotation
												End Site
												{
													OFFSET 0.078400 -0.000010 -0.001100
												}
											}
										}
									}
								}
								JOINT mixamorig:LeftHandMiddle1
								{
									OFFSET 0.430485 0.000000 0.000000
									CHANNELS 3 Xrotation Yrotation Zrotation
									JOINT mixamorig:LeftHandMiddle2
									{
										OFFSET 0.112203 0.000000 0.000000
										CHANNELS 3 Xrotation Yrotation Zrotation
										JOINT mixamorig:LeftHandMiddle3
										{
											OFFSET 0.108209 0.000000 0.000000
											CHANNELS 3 Xrotation Yrotation Zrotation
											JOINT mixamorig:LeftHandMiddle4
											{
												OFFSET 0.087466 0.000000 0.000000
												CHANNELS 3 Xrotation Yrotation Zrotation
												End Site
												{
													OFFSET 0.087400 -0.000057 -0.003400
												}
											}
										}
									}
								}
								JOINT mixamorig:LeftHandRing1
								{
									OFFSET 0.364574 -0.002440 -0.092011
									CHANNELS 3 Xrotation Yrotation Zrotation
									JOINT mixamorig:LeftHandRing2
									{
										OFFSET 0.114832 0.000000 0.000000
										CHANNELS 3 Xrotation Yrotation Zrotation
										JOINT mixamorig:LeftHandRing3
										{
											OFFSET 0.104409 0.000000 0.000000
											CHANNELS 3 Xrotation Yrotation Zrotation
											JOINT mixamorig:LeftHandRing4
											{
												OFFSET 0.080424 0.000000 0.000000
												CHANNELS 3 Xrotation Yrotation Zrotation
												End Site
												{
													OFFSET 0.080200 -0.000053 -0.006000
												}
											}
										}
									}
								}
								JOINT mixamorig:LeftHandPinky1
								{
									OFFSET 0.312269 -0.016255 -0.171399
									CHANNELS 3 Xrotation Yrotation Zrotation
									JOINT mixamorig:LeftHandPinky2
									{
										OFFSET 0.087028 0.000000 0.000000
										CHANNELS 3 Xrotation Yrotation Zrotation
										JOINT mixamorig:LeftHandPinky3
										{
											OFFSET 0.073733 0.000000 0.000000
											CHANNELS 3 Xrotation Yrotation Zrotation
											JOINT mixamorig:LeftHandPinky4
											{
												OFFSET 0.056250 0.000000 0.000000
												CHANNELS 3 Xrotation Yrotation Zrotation
												End Site
												{
													OFFSET 0.056100 -0.000056 -0.004100
												}
											}
										}
									}
								}
							}
						}
					}
				}
				JOINT mixamorig:RightShoulder
				{
					OFFSET -0.202600 0.346968 -0.022971
					CHANNELS 3 Xrotation Yrotation Zrotation
					JOINT mixamorig:RightArm
					{
						OFFSET -0.427342 -0.109309 -0.000307
						CHANNELS 3 Xrotation Yrotation Zrotation
						JOINT mixamorig:RightForeArm
						{
							OFFSET -0.849600 0.000000 -0.000000
							CHANNELS 3 Xrotation Yrotation Zrotation
							JOINT mixamorig:RightHand
							{
								OFFSET -0.753900 0.000000 -0.000000
								CHANNELS 3 Xrotation Yrotation Zrotation
								JOINT mixamorig:RightHandThumb1
								{
									OFFSET -0.139217 -0.077736 0.046135
									CHANNELS 3 Xrotation Yrotation Zrotation
									JOINT mixamorig:RightHandThumb2
									{
										OFFSET -0.102889 -0.059403 0.059403
										CHANNELS 3 Xrotation Yrotation Zrotation
										JOINT mixamorig:RightHandThumb3
										{
											OFFSET -0.097122 -0.056073 0.056073
											CHANNELS 3 Xrotation Yrotation Zrotation
											JOINT mixamorig:RightHandThumb4
											{
												OFFSET -0.076714 -0.044291 0.044291
												CHANNELS 3 Xrotation Yrotation Zrotation
												End Site
												{
													OFFSET -0.072157 -0.042014 0.053259
												}
											}
										}
									}
								}
								JOINT mixamorig:RightHandIndex1
								{
									OFFSET -0.450325 -0.003448 0.076701
									CHANNELS 3 Xrotation Yrotation Zrotation
									JOINT mixamorig:RightHandIndex2
									{
										OFFSET -0.104343 0.000000 -0.000000
										CHANNELS 3 Xrotation Yrotation Zrotation
										JOINT mixamorig:RightHandIndex3
										{
											OFFSET -0.097003 0.000000 -0.000000
											CHANNELS 3 Xrotation Yrotation Zrotation
											JOINT mixamorig:RightHandIndex4
											{
												OFFSET -0.081630 0.000000 -0.000000
												CHANNELS 3 Xrotation Yrotation Zrotation
												End Site
												{
													OFFSET -0.081600 -0.000082 -0.002198
												}
											}
										}
									}
								}
								JOINT mixamorig:RightHandMiddle1
								{
									OFFSET -0.397234 0.000000 -0.000000
									CHANNELS 3 Xrotation Yrotation Zrotation
									JOINT mixamorig:RightHandMiddle2
									{
										OFFSET -0.115313 0.000000 -0.000000
										CHANNELS 3 Xrotation Yrotation Zrotation
										JOINT mixamorig:RightHandMiddle3
										{
											OFFSET -0.121324 0.000000 -0.000000
											CHANNELS 3 Xrotation Yrotation Zrotation
											JOINT mixamorig:RightHandMiddle4
											{
												OFFSET -0.103502 0.000000 0.000000
												CHANNELS 3 Xrotation Yrotation Zrotation
												End Site
												{
													OFFSET -0.103400 -0.000083 -0.004599
												}
											}
										}
									}
								}
								JOINT mixamorig:RightHandRing1
								{
									OFFSET -0.356229 0.006227 -0.097026
									CHANNELS 3 Xrotation Yrotation Zrotation
									JOINT mixamorig:RightHandRing2
									{
										OFFSET -0.116123 0.000000 0.000000
										CHANNELS 3 Xrotation Yrotation Zrotation
										JOINT mixamorig:RightHandRing3
										{
											OFFSET -0.105608 0.000000 0.000000
											CHANNELS 3 Xrotation Yrotation Zrotation
											JOINT mixamorig:RightHandRing4
											{
												OFFSET -0.089388 0.000000 0.000000
												CHANNELS 3 Xrotation Yrotation Zrotation
												End Site
												{
													OFFSET -0.089200 -0.000198 -0.005797
												}
											}
										}
									}
								}
								JOINT mixamorig:RightHandPinky1
								{
									OFFSET -0.319258 -0.005155 -0.189362
									CHANNELS 3 Xrotation Yrotation Zrotation
									JOINT mixamorig:RightHandPinky2
									{
										OFFSET -0.084919 0.000000 0.000000
										CHANNELS 3 Xrotation Yrotation Zrotation
										JOINT mixamorig:RightHandPinky3
										{
											OFFSET -0.068357 0.000000 0.000000
											CHANNELS 3 Xrotation Yrotation Zrotation
											JOINT mixamorig:RightHandPinky4
											{
												OFFSET -0.053427 0.000000 0.000000
												CHANNELS 3 Xrotation Yrotation Zrotation
												End Site
												{
													OFFSET -0.053400 -0.000117 -0.001696
												}
											}
										}
									}
								}
							}
						}
					}
				}
			}
		}
	}
	JOINT mixamorig:LeftUpLeg
	{
		OFFSET 0.302300 -0.158000 -0.006800
		CHANNELS 3 Xrotation Yrotation Zrotation
		JOINT mixamorig:LeftLeg
		{
			OFFSET -0.021195 -1.512800 -0.072827
			CHANNELS 3 Xrotation Yrotation Zrotation
			JOINT mixamorig:LeftFoot
			{
				OFFSET 0.021196 -1.499076 -0.232845
				CHANNELS 3 Xrotation Yrotation Zrotation
				JOINT mixamorig:LeftToeBase
				{
					OFFSET 0.176214 -0.335644 0.384848
					CHANNELS 3 Xrotation Yrotation Zrotation
					JOINT mixamorig:LeftToe_End
					{
						OFFSET 0.078950 -0.008059 0.195507
						CHANNELS 3 Xrotation Yrotation Zrotation
						End Site
						{
							OFFSET 0.078950 -0.008059 0.195507
						}
					}
				}
			}
		}
	}
	JOINT mixamorig:RightUpLeg
	{
		OFFSET -0.302300 -0.158000 -0.006600
		CHANNELS 3 Xrotation Yrotation Zrotation
		JOINT mixamorig:RightLeg
		{
			OFFSET 0.021196 -1.512831 -0.074247
			CHANNELS 3 Xrotation Yrotation Zrotation
			JOINT mixamorig:RightFoot
			{
				OFFSET -0.021196 -1.499093 -0.231430
				CHANNELS 3 Xrotation Yrotation Zrotation
				JOINT mixamorig:RightToeBase
				{
					OFFSET -0.176206 -0.335620 0.376547
					CHANNELS 3 Xrotation Yrotation Zrotation
					JOINT mixamorig:RightToe_End
					{
						OFFSET -0.078935 -0.008056 0.196268
						CHANNELS 3 Xrotation Yrotation Zrotation
						End Site
						{
							OFFSET -0.078935 -0.008056 0.196268
						}
					}
				}
			}
		}
	}
}
MOTION
Frames: 5
Frame Time: 0.016667
0.039935 0.629478 0.098106 -110.636934 -4.300277 -11.761976 25.362581 -2.230257 -1.002986 20.498040 -2.397510 0.364515 20.454936 -2.006961 0.855570 14.925842 -1.757766 -4.076901 17.464724 -11.035940 -5.113469 0.000000 -0.000001 0.000000 4.794916 -24.299518 8.394115 -68.361820 -4.611946 -59.349529 0.000024 -121.778489 0.000026 -20.883792 -37.267032 20.319068 0.699752 -6.020116 19.223926 19.074654 26.512450 -1.026376 3.271066 -0.981144 3.963637 0.000001 -0.000001 -0.000003 1.370696 5.938693 -40.471309 0.883081 3.094858 -31.844196 0.339562 1.967246 -19.583699 0.000001 0.000001 0.000004 3.721806 9.203192 -36.448632 1.500522 3.916282 -41.916065 0.476250 2.315612 -23.240866 -0.000001 -0.000000 0.000001 3.090039 8.505095 -34.940383 1.098164 3.416394 -35.630259 0.533256 2.443997 -24.613773 -0.000001 0.000000 -0.000000 3.603234 12.761732 -45.581288 0.673753 2.729586 -27.725816 0.090001 1.024045 -10.045312 -0.000002 -0.000002 -0.000001 4.290178 20.445304 -1.606830 -70.405324 26.093520 33.973894 0.000001 120.298619 0.000015 -21.763896 -4.154184 -16.783759 -22.683492 -3.687028 -17.249267 13.666551 -20.582726 -6.820330 1.291434 -33.711474 -29.751372 -0.000001 -0.000002 -0.000001 0.246064 -3.262799 18.902294 0.589412 -2.269649 29.112640 0.172151 -1.255796 15.610708 0.000003 0.000001 0.000000 -0.702546 -1.215808 21.259790 0.924241 -2.786645 36.691851 0.558020 -2.212371 28.309439 0.000005 0.000002 -0.000001 -0.941538 -2.664846 38.529254 0.358952 -1.794592 22.620050 0.313724 -1.682030 21.129354 0.000002 0.000002 -0.000002 -2.260405 -1.124660 39.408136 0.612399 -2.310417 29.687608 0.130080 -1.094176 13.559647 -0.000001 -0.000000 0.000002 -28.383539 5.513048 14.642239 81.030059 -3.925286 2.271121 -12.666010 3.668609 -9.721736 0.012609 0.000000 0.000001 0.000001 -0.000002 0.000001 -86.254463 -16.683287 7.350044 109.943062 -4.476521 1.765791 -21.521040 2.162107 2.158726 -1.132509 -0.000005 0.000003 0.000002 -0.000001 -0.000000 
0.037646 0.623753 0.103448 -110.889084 -4.308059 -11.602883 25.548519 -2.087359 -0.820131 20.377820 -2.292291 0.320593 20.332201 -1.910483 0.805185 14.928150 -1.702723 -4.040119 17.557874 -10.377364 -5.587316 -0.000001 -0.000001 -0.000000 4.773019 -23.128218 8.496559 -68.087922 -4.760825 -59.649394 0.000000 -121.879330 0.000006 -20.583678 -37.279429 20.740665 0.699749 -6.020119 19.223928 19.074666 26.512450 -1.026373 3.271066 -0.981142 3.963639 -0.000004 -0.000001 -0.000001 1.370692 5.938691 -40.471309 0.883075 3.094858 -31.844193 0.339562 1.967245 -19.583705 -0.000000 0.000003 0.000002 3.721797 9.203190 -36.448628 1.500532 3.916280 -41.916062 0.476250 2.315610 -23.240873 -0.000001 -0.000003 -0.000000 3.090032 8.505097 -34.940383 1.098171 3.416394 -35.630262 0.533256 2.443998 -24.613772 0.000000 0.000003 -0.000000 3.603239 12.761726 -45.581288 0.673757 2.729587 -27.725821 0.090001 1.024046 -10.045315 -0.000002 -0.000005 0.000000 4.259320 21.010437 -1.547571 -70.194161 26.059016 34.287843 0.000038 120.135965 -0.000008 -21.716392 -3.885674 -16.617246 -22.683495 -3.687027 -17.249262 13.666544 -20.582726 -6.820333 1.291435 -33.711468 -29.751375 -0.000002 -0.000002 -0.000006 0.246058 -3.262797 18.902294 0.589409 -2.269648 29.112636 0.172153 -1.255794 15.610713 0.000002 0.000001 0.000000 -0.702547 -1.215810 21.259790 0.924237 -2.786650 36.691848 0.558010 -2.212373 28.309435 -0.000000 0.000000 0.000000 -0.941543 -2.664844 38.529251 0.358943 -1.794595 22.620055 0.313722 -1.682033 21.129358 0.000002 -0.000001 0.000002 -2.260410 -1.124656 39.408132 0.612393 -2.310418 29.687605 0.130086 -1.094174 13.559649 -0.000001 -0.000000 -0.000000 -31.174104 4.604625 14.586296 87.696610 -4.052516 2.340620 -13.053032 3.646628 -9.492407 -0.038307 0.000004 0.000005 -0.000002 -0.000003 0.000001 -82.784413 -15.595012 7.617113 106.898273 -4.486204 2.174020 -21.563459 2.402027 2.204134 -1.014331 -0.000005 -0.000001 -0.000001 -0.000001 0.000000 
0.035078 0.617985 0.108473 -111.139964 -4.250241 -11.369434 25.757982 -1.931673 -0.614265 20.258572 -2.174725 0.291746 20.210282 -1.802189 0.770359 14.937089 -1.628795 -3.948435 17.566051 -9.526919 -6.170415 0.000000 0.000000 0.000000 4.747803 -21.794596 8.616475 -67.910092 -4.907755 -60.002146 -0.000019 -121.999268 -0.000018 -20.273776 -37.169135 21.049610 0.699749 -6.020121 19.223924 19.074647 26.512458 -1.026366 3.271069 -0.981146 3.963638 -0.000001 -0.000003 -0.000004 1.370692 5.938694 -40.471306 0.883076 3.094856 -31.844193 0.339561 1.967241 -19.583699 0.000000 0.000004 -0.000000 3.721808 9.203186 -36.448628 1.500531 3.916284 -41.916062 0.476253 2.315613 -23.240868 -0.000000 0.000005 0.000000 3.090037 8.505096 -34.940383 1.098165 3.416394 -35.630259 0.533252 2.443996 -24.613773 -0.000000 0.000000 -0.000000 3.603233 12.761729 -45.581288 0.673755 2.729586 -27.725818 0.089995 1.024043 -10.045310 0.000000 -0.000003 -0.000001 4.223659 21.590684 -1.431382 -70.050946 26.079730 34.837834 -0.000021 119.878371 0.000027 -21.590062 -3.449080 -16.393431 -22.683494 -3.687028 -17.249267 13.666547 -20.582724 -6.820334 1.291436 -33.711468 -29.751375 -0.000001 0.000002 -0.000003 0.246058 -3.262798 18.902294 0.589412 -2.269649 29.112643 0.172156 -1.255797 15.610710 -0.000002 0.000001 0.000000 -0.702552 -1.215808 21.259789 0.924242 -2.786647 36.691855 0.558018 -2.212373 28.309433 -0.000001 0.000001 -0.000001 -0.941541 -2.664839 38.529247 0.358939 -1.794593 22.620050 0.313721 -1.682027 21.129356 -0.000000 -0.000001 0.000002 -2.260407 -1.124656 39.408132 0.612397 -2.310418 29.687608 0.130084 -1.094178 13.559652 0.000000 -0.000001 0.000001 -34.135868 3.699233 14.444467 94.189682 -3.777436 2.307611 -13.648492 3.589223 -9.152630 0.149478 0.000002 -0.000003 -0.000003 -0.000002 -0.000001 -79.083263 -14.395891 7.816411 103.630103 -4.495679 2.512751 -21.617566 2.654876 2.215122 -0.944753 -0.000004 0.000004 -0.000000 0.000001 0.000000 
0.032277 0.612356 0.113109 -111.376691 -4.122808 -11.065239 25.991115 -1.761971 -0.381588 20.148390 -2.043942 0.278298 20.097374 -1.680580 0.751077 14.967941 -1.539573 -3.796176 17.493322 -8.508896 -6.836434 -0.000001 -0.000001 -0.000000 4.719757 -20.327063 8.778945 -67.814571 -5.039584 -60.409417 0.000003 -122.133700 -0.000001 -19.963559 -36.950248 21.246852 0.699750 -6.020117 19.223926 19.074649 26.512455 -1.026381 3.271069 -0.981149 3.963642 -0.000002 -0.000005 -0.000007 1.370693 5.938694 -40.471306 0.883074 3.094859 -31.844196 0.339560 1.967243 -19.583703 -0.000001 0.000000 -0.000000 3.721807 9.203188 -36.448632 1.500527 3.916281 -41.916068 0.476251 2.315615 -23.240863 -0.000001 0.000003 0.000000 3.090039 8.505094 -34.940383 1.098172 3.416396 -35.630256 0.533253 2.443997 -24.613775 -0.000001 0.000003 -0.000001 3.603245 12.761729 -45.581288 0.673755 2.729587 -27.725819 0.089996 1.024046 -10.045317 -0.000002 -0.000000 0.000001 4.179921 22.190813 -1.227022 -69.981073 26.155786 35.589322 -0.000013 119.538310 0.000015 -21.395743 -2.878524 -16.105769 -22.683495 -3.687025 -17.249267 13.666549 -20.582727 -6.820331 1.291432 -33.711471 -29.751375 -0.000001 -0.000003 -0.000004 0.246058 -3.262797 18.902294 0.589412 -2.269652 29.112640 0.172153 -1.255793 15.610713 -0.000002 -0.000001 -0.000000 -0.702548 -1.215807 21.259787 0.924243 -2.786649 36.691848 0.558013 -2.212372 28.309432 0.000002 0.000001 -0.000003 -0.941541 -2.664837 38.529251 0.358940 -1.794598 22.620046 0.313725 -1.682030 21.129354 0.000001 -0.000001 0.000001 -2.260409 -1.124656 39.408136 0.612397 -2.310418 29.687605 0.130084 -1.094177 13.559652 0.000003 0.000001 -0.000003 -37.257900 2.809389 14.199482 100.487478 -3.161641 2.179642 -14.415365 3.496709 -8.730083 0.554053 -0.000001 0.000002 0.000001 -0.000002 -0.000000 -75.228858 -13.135769 7.902860 100.140880 -4.528856 2.770904 -21.686267 2.917986 2.209568 -0.918530 -0.000002 -0.000001 -0.000002 0.000002 -0.000000 
0.029288 0.607065 0.117175 -111.581734 -3.928865 -10.696349 26.243976 -1.576510 -0.121733 20.051596 -1.897858 0.279974 19.998027 -1.543055 0.746863 15.037939 -1.436450 -3.589603 17.342354 -7.353546 -7.544540 0.000000 0.000000 -0.000000 4.686397 -18.766689 8.997712 -67.786527 -5.148547 -60.853427 -0.000020 -122.276847 -0.000018 -19.670151 -36.640622 21.337791 0.699755 -6.020117 19.223928 19.074662 26.512450 -1.026381 3.271067 -0.981145 3.963636 -0.000005 0.000002 -0.000003 1.370704 5.938693 -40.471309 0.883079 3.094860 -31.844193 0.339559 1.967241 -19.583701 0.000001 -0.000000 -0.000002 3.721810 9.203190 -36.448632 1.500520 3.916283 -41.916065 0.476250 2.315612 -23.240864 -0.000000 -0.000000 -0.000000 3.090045 8.505095 -34.940379 1.098170 3.416395 -35.630256 0.533247 2.443992 -24.613773 -0.000001 0.000004 0.000000 3.603240 12.761731 -45.581285 0.673755 2.729585 -27.725819 0.089996 1.024043 -10.045310 0.000003 -0.000002 -0.000001 4.124770 22.823391 -0.925413 -69.983887 26.261119 36.509598 0.000001 119.141435 0.000018 -21.134492 -2.219627 -15.748273 -22.683495 -3.687033 -17.249269 13.666555 -20.582724 -6.820332 1.291436 -33.711474 -29.751375 0.000001 -0.000003 -0.000006 0.246060 -3.262798 18.902291 0.589407 -2.269649 29.112636 0.172153 -1.255796 15.610712 0.000005 -0.000001 0.000000 -0.702548 -1.215812 21.259790 0.924240 -2.786648 36.691845 0.558018 -2.212372 28.309435 -0.000001 -0.000001 -0.000000 -0.941539 -2.664841 38.529254 0.358949 -1.794592 22.620053 0.313725 -1.682030 21.129356 0.000001 -0.000000 -0.000000 -2.260407 -1.124662 39.408139 0.612399 -2.310416 29.687612 0.130089 -1.094175 13.559647 0.000004 -0.000001 0.000001 -40.542705 1.956908 13.824685 106.565069 -2.345681 1.992077 -15.282190 3.367383 -8.242884 1.100927 0.000000 0.000001 -0.000004 0.000000 0.000001 -71.279089 -11.858383 7.851556 96.432060 -4.592074 2.941824 -21.778055 3.187050 2.204950 -0.919649 0.000003 0.000004 -0.000000 0.000000 0.000001 
